<svg width="20" height="20" viewBox="0 0 20 20" fill="none" xmlns="http://www.w3.org/2000/svg">
<path d="M9.32803 4.90315C9.77491 6.24377 9.31866 7.5969 8.30928 7.92815C7.29991 8.2594 6.11866 7.44065 5.67178 6.10002C5.22491 4.7594 5.68116 3.40627 6.69054 3.07502C7.69991 2.74377 8.88116 3.56252 9.32803 4.90315ZM5.13741 8.20627C5.72803 9.21877 5.58428 10.3969 4.81866 10.8344C4.05303 11.2719 2.95303 10.8063 2.36553 9.79377C1.77803 8.78127 1.91866 7.60315 2.68428 7.16565C3.44991 6.72815 4.54991 7.19377 5.13741 8.20627ZM4.16241 14.5375C5.79991 10.1219 8.70928 9.00002 9.99991 9.00002C11.2905 9.00002 14.1999 10.1219 15.8374 14.5375C15.9499 14.8406 15.9999 15.1656 15.9999 15.4906V15.5406C15.9999 16.3469 15.3468 17 14.5405 17C14.1812 17 13.8249 16.9563 13.478 16.8688L10.728 16.1813C10.2499 16.0625 9.74991 16.0625 9.27179 16.1813L6.52178 16.8688C6.17491 16.9563 5.81866 17 5.45928 17C4.65303 17 3.99991 16.3469 3.99991 15.5406V15.4906C3.99991 15.1656 4.04991 14.8406 4.16241 14.5375ZM15.1812 10.8344C14.4155 10.3969 14.2718 9.21877 14.8624 8.20627C15.453 7.19377 16.5499 6.72815 17.3155 7.16565C18.0812 7.60315 18.2249 8.78127 17.6343 9.79377C17.0437 10.8063 15.9468 11.2719 15.1812 10.8344ZM11.6905 7.92815C10.6812 7.5969 10.2249 6.24377 10.6718 4.90315C11.1187 3.56252 12.2999 2.74377 13.3093 3.07502C14.3187 3.40627 14.7749 4.7594 14.328 6.10002C13.8812 7.44065 12.6999 8.2594 11.6905 7.92815Z" fill="#6C757D"/>
</svg>
